<?xml version="1.0" encoding="UTF-8" standalone="no"?>
<!-- Created with Inkscape (http://www.inkscape.org/) -->

<svg
   version="1.1"
   id="svg1"
   width="267.43356"
   height="490.42377"
   viewBox="0 0 267.43356 490.42377"
   xml:space="preserve"
   xmlns="http://www.w3.org/2000/svg"
   xmlns:svg="http://www.w3.org/2000/svg"><defs
     id="defs1" /><g
     id="g1"
     transform="translate(-29.878109,-47.973808)"><path
       style="fill:#999999"
       d="m 97.314366,100.27183 8.658614,-11.775715 21.47335,-11.083023 15.23916,-6.92689 9.3513,-12.122058 2.77076,-9.697645 7.61957,-0.692689 1.38538,12.468401 -9.00495,20.780669 -16.62454,1.385378 14.54647,0.692689 8.31227,8.312268 2.77075,15.239155 -3.46344,54.02974 -6.92689,10.39034 -17.66357,-33.59542 -9.69765,-13.50743 10e-6,-11.08302 -4.15614,-10.39034 -7.27323,-1.73172 z"
       id="Traps_left" /><path
       style="fill:#999999"
       d="m 229.61795,100.27183 -8.65861,-11.775715 -21.47335,-11.083023 -15.23916,-6.92689 -9.3513,-12.122058 -2.77076,-9.697645 -7.61957,-0.692689 -1.38538,12.468401 9.00495,20.780669 16.62454,1.385378 -14.54647,0.692689 -8.31227,8.312268 -2.77075,15.239155 3.46344,54.02974 6.92689,10.39034 17.66357,-33.59542 9.69765,-13.50743 -1e-5,-11.08302 4.15614,-10.39034 7.27323,-1.73172 z"
       id="path10" /><path
       style="fill:#999999"
       d="m 121.22676,112.16536 -15.42886,-10.53081 -7.347084,-2.93883 -7.10217,-1.46941 -3.67354,-0.244906 -5.63276,2.204126 -6.12256,3.67353 -5.877661,7.10218 -4.898051,10.041 -2.204123,10.04101 1.469416,7.59197 2.449025,1.95923 4.408246,-8.57159 4.163338,-5.63276 7.34708,-2.20412 6.85727,-1.46942 8.32669,-1.71432 4.653154,-2.44902 6.61236,-2.44903 7.10218,-1.95922 z"
       id="deltoid_left" /><path
       style="fill:#999999"
       d="m 206.45284,112.16536 15.42886,-10.53081 7.34708,-2.93883 7.10217,-1.46941 3.67354,-0.244906 5.63276,2.204126 6.12256,3.67353 5.87767,7.10218 4.89805,10.041 2.20412,10.04101 -1.46942,7.59197 -2.44902,1.95923 -4.40825,-8.57159 -4.16334,-5.63276 -7.34708,-2.20412 -6.85727,-1.46942 -8.32669,-1.71432 -4.65315,-2.44902 -6.61236,-2.44903 -7.10218,-1.95922 z"
       id="deltoid_right" /><path
       style="fill:#999999"
       d="m 88.654716,123.18598 1.95922,16.40847 2.69393,5.14295 -0.2449,5.14295 v 3.42864 l -0.73471,8.08178 0.73471,4.65315 1.95922,1.46941 -1.71432,7.34708 -3.91844,9.06139 -6.12256,5.63276 -10.04101,6.61237 -1.714316,1.95922 0.244906,-6.61237 -6.122567,3.18374 -5.387855,2.20412 -5.877661,-0.48981 -2.204123,-0.7347 -2.204123,2.20412 -4.408246,4.65315 -1.469415,2.44902 -2.204123,-5.63276 0.244903,-5.14295 2.93883,-4.16334 0.244903,-5.38786 1.95922,-4.65315 2.204123,-1.22451 1.224513,-13.95944 0.244902,-6.85727 1.714318,-7.10218 2.93883,-5.63276 5.877661,-4.40824 4.163343,-1.71432 2.204123,0.2449 2.204123,-6.12256 4.898051,-7.10217 0.4898,-1.22452 5.63276,-1.22451 z"
       id="tricep_left" /><path
       style="fill:#999999"
       d="m 238.53508,123.67579 -1.95922,16.40847 -2.69393,5.14295 0.2449,5.14295 v 3.42864 l 0.73471,8.08178 -0.73471,4.65315 -1.95922,1.46941 1.71432,7.34708 3.91844,9.06139 6.12256,5.63276 10.04101,6.61237 1.71431,1.95922 -0.2449,-6.61237 6.12256,3.18374 5.38786,2.20412 5.87766,-0.48981 2.20412,-0.7347 2.20413,2.20412 4.40824,4.65315 1.46942,2.44902 2.20412,-5.63276 -0.2449,-5.14295 -2.93883,-4.16334 -0.24491,-5.38786 -1.95922,-4.65315 -2.20412,-1.22451 -1.22451,-13.95944 -0.2449,-6.85727 -1.71432,-7.10218 -2.93883,-5.63276 -5.87766,-4.40824 -4.16335,-1.71432 -2.20412,0.2449 -2.20412,-6.12256 -4.89805,-7.10217 -0.4898,-1.22452 -5.63276,-1.22451 z"
       id="tricep_right" /><path
       style="fill:#999999"
       d="m 161.63568,181.71768 -25.46987,-45.55187 -9.7961,-9.7961 -0.4898,-9.3063 -4.40825,-4.40824 -12.73493,2.93883 -9.306304,4.40824 -9.7961,2.44903 -0.4898,6.85727 1.95922,10.28591 2.93883,5.38785 -0.97961,11.26552 -1.46942,7.83688 4.40825,3.91844 2.44902,9.3063 11.265524,8.81649 10.28591,9.7961 0.34634,5.88786 -1.81576,4.39804 -3.42863,7.83689 2.44902,5.87766 -0.4898,11.26551 -3.91845,11.26552 -0.4898,8.81649 7.83688,-0.37095 6.62977,-3.42864 6.22401,-8.18323 10.28591,-1.69692 7.22823,-0.63326 2.93883,1.75634 2.73594,5.53132 1.78095,3.71556 4.7894,1.84037 z"
       id="Back_left" /><path
       style="fill:#999999"
       d="m 165.06431,182.20749 25.46987,-45.55187 9.7961,-9.7961 0.4898,-9.3063 4.40825,-4.40824 12.73493,2.93883 9.3063,4.40824 9.7961,2.44903 0.4898,6.85727 -1.95922,10.28591 -2.93883,5.38785 0.97961,11.26552 1.46942,7.83688 -4.40825,3.91844 -2.44902,9.3063 -11.26552,8.81649 -10.04101,9.5512 1.83317,-0.44779 -0.60865,10.97859 3.42863,7.83689 -2.44902,5.87766 0.4898,11.26551 3.91845,11.26552 0.4898,8.81649 -10.26129,-1.06364 -5.59074,-3.77499 -4.14594,-5.41247 -8.90053,-2.73595 -8.26727,-0.28692 -1.89979,0.71731 -1.69691,4.14594 -5.2444,5.79363 -4.44305,1.14768 z"
       id="Back_right" /><path
       style="fill:#999999"
       d="m 163.5949,252.24961 0.4898,23.02084 -2.44902,9.3063 -6.36747,6.36746 -13.22474,2.44903 h -9.7961 l -7.83688,0.97961 -3.91844,0.97961 -1.46941,-8.32669 2.93883,-7.34708 2.93883,-5.87766 1.46941,-3.91844 0.48981,-7.83688 v -5.38785 -2.93883 l -5.87766,-2.44903 6.85727,-6.36747 2.44902,-4.89805 4.89805,-3.42863 10.28591,-1.46942 5.38786,-1.46941 6.85727,9.30629 z"
       id="Glutes_left" /><path
       style="fill:#999999"
       d="m 163.5949,252.73941 -0.4898,23.02084 2.44902,9.3063 6.36747,6.36746 13.22474,2.44903 h 9.7961 l 7.83688,0.97961 3.91844,0.97961 1.46941,-8.32669 -2.93883,-7.34708 -2.93883,-5.87766 -1.46941,-3.91844 -0.48981,-7.83688 v -5.38785 -2.93883 l 5.87766,-2.44903 -6.85727,-6.36747 -2.44902,-4.89805 -4.89805,-3.42863 -10.28591,-1.46942 -5.38786,-1.46941 -6.85727,9.30629 z"
       id="path20" /><path
       style="fill:#999999"
       d="m 158.45916,291.43402 v 45.55187 l -2.44903,8.81649 -0.4898,14.20435 v 10.2859 l -2.93883,15.18396 -5.38786,13.71454 -7.03554,7.83688 2.13749,2.93883 -3.42864,-5.87766 c -3.8184,-2.12249 -4.30997,3.72095 -1.6723,1.59846 l -1.79114,-3.41844 1.30134,0.21307 -4.12133,-2.18671 -0.65787,-0.92019 -3.97787,1.61288 -1.46942,-0.35654 -1.67229,0.31153 -2.04326,-2.58228 -2.50845,0.87096 -1.95922,7.09496 -2.87941,-5.34883 -4.12132,-0.35653 -7.01093,-1.04326 -8.658613,-20.65163 -1.385376,-8.82668 -2.735958,-9.60342 -1.172288,-8.09918 -0.227498,-20.7399 7.619579,-8.87591 2.305564,-10.69168 3.5721,-8.90052 9.3063,-7.34708 10.2859,-2.44902 14.20435,-0.48981 10.77571,-1.46941 z"
       id="leg_left" /><path
       style="fill:#999999"
       d="m 193.96281,398.94624 h 2.44902 l 3.67354,1.22451 2.20412,-0.48981 2.93884,0.2449 2.69393,-0.4898 3.67354,0.2449 c 0,0 0.4898,-0.7347 1.46941,0.24491 0.97961,0.97961 2.93883,-0.24491 2.93883,-0.24491 l 1.71432,4.89805 2.44902,5.14296 1.71432,5.38785 1.95922,6.61237 v 7.34708 c 0,0 0.2449,8.57158 0.2449,9.7961 0,1.22451 -6.12256,8.32668 -6.12256,8.32668 l -4.89805,21.30652 -7.10218,20.81672 -2.44902,8.81649 1.46941,11.26552 0.73471,2.93883 -24.24535,2.44902 -0.2449,-3.42863 1.46941,-6.12257 1.46942,-5.87766 v -10.2859 -9.5512 -5.14295 l -3.18373,-8.32669 -2.69393,-7.83688 -2.44903,-9.3063 -1.22451,-14.20435 c 0,0 -0.2449,-7.10217 -0.2449,-8.81649 0,-1.71431 4.16334,-13.71454 4.16334,-13.71454 l 0.48981,-3.42863 2.44902,-4.65315 0.97961,-3.91844 v -1.95922 l 1.95922,-10e-6 3.67354,0.48981 2.93883,-0.4898 1.46941,-0.2449 z"
       id="calves_right" /><path
       style="fill:#999999"
       d="m 141.30011,516.92424 -0.69269,12.4684 v 8.65862 l -6.2342,0.34634 -14.20013,-1.03903 -12.81474,-1.03904 h -5.19517 l 0.69269,-7.61957 c 0,0 1.73172,-1.03904 3.1171,-1.03904 1.38538,0 3.80979,-0.69269 3.80979,-0.69269 l 4.84882,-3.46344 3.80979,-4.15614 0.69269,-5.19516"
       id="foot_left" /><path
       style="fill:#999999"
       d="m 184.24682,516.5779 0.69269,12.4684 v 8.65862 l 6.2342,0.34634 14.20013,-1.03903 12.81474,-1.03904 h 5.19517 l -0.69269,-7.61957 c 0,0 -1.73172,-1.03904 -3.1171,-1.03904 -1.38538,0 -3.80979,-0.69269 -3.80979,-0.69269 l -4.84882,-3.46344 -3.80979,-4.15614 -0.69269,-5.19516"
       id="foot_right" /><path
       style="fill:#999999"
       d="m 71.51154,195.43222 1.469416,20.08201 -5.387856,14.20435 -10.285907,17.63298 -3.91844,11.75532 -1.469416,8.32669 -18.122787,1.95922 -3.918441,-9.3063 1.959221,-9.30629 0.489805,-6.85728 v -11.26551 -9.7961 l 1.95922,-15.18396 5.877661,-7.83688 4.408245,7.34707 3.918441,-5.87766 3.91844,-3.91844 h 6.367466 z"
       id="forearm_left" /><path
       style="fill:#999999"
       d="m 255.67825,195.92202 -1.46941,20.08201 5.38785,14.20435 10.28591,17.63298 3.91844,11.75532 1.46941,8.32669 18.12279,1.95922 3.91844,-9.3063 -1.95922,-9.30629 -0.4898,-6.85728 v -11.26551 -9.7961 l -1.95922,-15.18396 -5.87766,-7.83688 -4.40825,7.34707 -3.91844,-5.87766 -3.91844,-3.91844 h -6.36747 z"
       id="forearm_right" /><path
       style="fill:#999999"
       d="m 103.21066,331.45167 -3.463448,-27.36121 3.463448,-20.08798 6.2342,-14.54647 5.19517,-19.04895 h 7.27323 l 4.84882,2.42441 2.07807,1.73173 -1.38538,11.08302 v 4.84882 l -4.50248,9.3513 -2.77075,5.54152 0.34634,5.54151 1.38538,4.15613 -6.2342,2.07807 -4.84882,4.50248 -4.84883,9.69764 -3.46344,16.62454 z"
       id="path28" /><path
       style="fill:#999999;stroke-width:0.921331"
       d="m 219.77083,331.84511 2.92744,-27.47815 -2.92744,-20.17382 -2.84497,-14.26229 -4.39116,-20.51573 -8.57202,1.03903 -4.0984,2.43477 -1.75647,1.73914 1.17098,11.13038 v 4.86954 l 3.80566,9.39127 2.34195,5.56519 -2.02446,9.02864 -0.82464,3.82754 5.96207,2.08696 4.09841,3.48269 4.79111,7.66101 2.92743,16.69558 z"
       id="path28-1" /><path
       style="fill:#999999"
       d="m 128.99053,397.56087 h -2.44902 l -3.67354,1.22451 -2.20412,-0.48981 -2.93884,0.2449 -2.69393,-0.4898 -3.67354,0.2449 c 0,0 -0.4898,-0.7347 -1.46941,0.24491 -0.97961,0.97961 -2.93883,-0.24491 -2.93883,-0.24491 l -1.71432,4.89805 -2.44902,5.14296 -1.71433,5.38785 -1.959218,6.61237 v 7.34708 c 0,0 -0.2449,8.57158 -0.2449,9.7961 0,1.22451 6.122568,8.32668 6.122568,8.32668 l 4.89805,21.30652 7.10218,20.81672 2.44902,8.81649 -1.46941,11.26552 -0.73471,2.93883 24.24535,2.44902 0.2449,-3.42863 -1.46941,-6.12257 -1.46942,-5.87766 v -10.2859 -9.5512 -5.14295 l 3.18373,-8.32669 2.69393,-7.83688 2.44903,-9.3063 1.22451,-14.20435 c 0,0 0.2449,-7.10217 0.2449,-8.81649 0,-1.71431 -4.16334,-13.71454 -4.16334,-13.71454 l -0.48981,-3.42863 -2.44902,-4.65315 -0.97961,-3.91844 v -1.95922 l -1.95922,-1e-5 -3.67354,0.48981 -2.93883,-0.4898 -1.46941,-0.2449 z"
       id="path29" /><path
       style="fill:#999999"
       d="m 165.60684,292.8194 v 45.55187 l 2.44903,8.81649 0.4898,14.20435 v 10.2859 l 2.93883,15.18396 5.38787,13.71454 7.03554,7.83688 -2.13749,2.93883 3.42864,-5.87766 c 3.8184,-2.12249 4.30997,3.72095 1.6723,1.59846 l 1.79114,-3.41844 -1.30134,0.21307 4.12133,-2.18671 0.65787,-0.92019 3.97787,1.61288 1.46942,-0.35654 1.67229,0.31153 2.04326,-2.58228 2.50845,0.87096 1.95922,7.09496 2.87941,-5.34883 4.12132,-0.35653 7.01093,-1.04326 8.65861,-20.65163 1.38538,-8.82668 2.73595,-9.60342 1.17229,-8.09918 0.2275,-20.7399 -7.61958,-8.87591 -2.30556,-10.69168 -3.5721,-8.90052 -9.3063,-7.34708 -10.2859,-2.44902 -14.20435,-0.48981 -10.77571,-1.46941 z"
       id="path30" /></g></svg>
